<?xml version="1.0" encoding="utf-8" ?>
<svg xmlns="http://www.w3.org/2000/svg" xmlns:xlink="http://www.w3.org/1999/xlink" width="1500" height="1500">
	<path fill="#FEFEFE" d="M576.846 176.118C593.955 175.389 611.005 176.298 628.079 177.306C714.341 182.399 807.223 204.854 874.457 262.03C931.425 310.476 967.327 384.062 973.392 458.32L988.61 458.322C1002.4 458.343 1015.88 458.601 1029.57 460.456C1082.08 467.568 1135.3 491.906 1172.86 529.676C1213.43 570.112 1238.79 623.323 1244.65 680.307C1247.3 704.937 1246.54 730.115 1246.44 754.846C1259.09 758.43 1270.82 764.68 1280.86 773.177C1301.13 790.536 1316.98 816.729 1318.83 843.707C1320.55 868.632 1319.8 893.718 1319.79 918.69L1319.81 1036.47L1319.84 1111.97C1319.85 1129.45 1321.12 1147.68 1317.91 1164.92C1314.39 1184.76 1305.36 1203.21 1291.85 1218.17C1268.62 1244.41 1239.73 1259.08 1204.71 1261.11C1177.77 1262.66 1147.47 1261.37 1120.24 1261.37L956.463 1261.36L851.002 1261.36C826.781 1261.39 801.522 1263.1 777.621 1259.04C755.902 1255.36 735.52 1246.64 719.029 1231.83C696.544 1211.63 684.038 1180.84 682.368 1150.97C671.56 1153.37 660.322 1154.7 649.369 1156.34C584.125 1166.39 517.649 1165.27 452.779 1153.05C379.837 1141 298.624 1106.46 247.063 1052.02C233.959 1038.19 223.409 1022.79 213.87 1006.35C180.16 948.257 176.172 896.504 177.89 831.19C178.399 811.828 184.772 793.005 199.164 779.548C206.98 772.241 217.188 766.639 227.674 764.398C242.52 761.225 279.037 763.002 295.658 763.011C331.085 763.029 366.801 762.027 402.196 763.129C416.724 763.581 430.227 767.958 441.943 776.648C487.716 810.598 456.38 860.606 483.079 887.787C501.719 906.764 541.717 913.272 567.078 913.366C584.836 913.431 619.267 910.229 632.345 896.348C639.511 888.742 641.273 875.986 640.565 865.925C639.725 853.981 635.404 843.014 625.639 835.575C610.078 823.722 586.288 816.509 567.993 809.369C527.63 793.616 486.121 780.89 445.142 766.876C390.014 748.023 336.574 728.738 291.761 690.021C238.283 643.818 208.112 578.409 203.111 508.375C197.415 428.614 220.524 354.638 272.964 294.163C326.415 232.522 413.681 196.7 492.778 183.785C520.872 179.198 548.552 178.115 576.846 176.118ZM460.136 1126.73C547.464 1141.1 623.728 1138.44 710.193 1119.3C710.075 1152.83 707.956 1181.89 733.634 1207.85C752.717 1227.14 774.426 1233.53 800.857 1233.53L1094.84 1233.44L1174.23 1233.49C1189.98 1233.51 1207.05 1234.93 1222.54 1232.03C1239.21 1228.92 1254.8 1220.05 1266.67 1208.05C1279.81 1194.76 1287.41 1178.23 1290.77 1159.94C1293.13 1147.15 1292.04 1133.23 1292.02 1120.23L1291.94 1059.47C1291.93 990.312 1292.8 921.055 1292.02 851.911C1291.79 830.838 1284.83 814.863 1269.75 800.036C1256.01 786.536 1237.44 777.335 1218.11 776.139C1218.04 745.611 1219.62 714.35 1217.01 683.95C1212.68 633.499 1192.14 584.273 1155.95 548.43C1113.98 506.871 1051.82 484.145 993.138 484.653C978.058 484.784 963.024 486.237 948.06 488.021C946.58 414.199 920.982 343.833 867.168 292.026C806.797 233.907 719 212.528 637.796 205.934C616.779 204.227 596.077 203.091 574.988 203.8C574.464 203.816 573.941 203.843 573.419 203.882L572.289 204.065C562.531 205.575 552.467 205.012 542.619 205.632C525.751 206.853 508.937 208.721 492.212 211.232C474.028 214.05 456.13 219.075 438.588 224.572C378.289 243.464 319.449 274.042 281.039 325.835C237.593 384.42 222.681 457.859 233.564 529.443C243.1 591.545 277.028 647.272 327.818 684.257C376.381 719.975 434.814 735.55 491.296 754.018C523.399 764.406 555.161 775.819 586.533 788.239C605.867 795.907 629.297 803.625 645.507 816.851C658.303 827.291 664.741 840.613 667.16 856.816C669.932 875.385 666.584 896.558 654.99 911.752C640.534 930.697 615.637 936.172 593.303 938.949C552.826 943.983 503.605 938.061 470.568 912.502C455.559 900.889 445.942 884.469 443.745 865.602C441.383 845.323 447.368 813.691 429.407 799.326C422.787 794.032 414.029 791.766 405.766 790.671C391.756 788.815 377.346 789.465 363.232 789.471L300.965 789.538L258.81 789.558C251.248 789.516 243.242 788.809 235.733 789.709C227.043 790.749 220.034 794.448 214.787 801.542C210.781 806.959 208.417 813.389 207.073 819.944C202.579 841.862 204.775 889.036 208.532 911.15C219.265 974.321 250.676 1027.59 303.288 1064.8C350.022 1097.85 404.169 1116.3 460.136 1126.73Z"/>
	<path fill="#FE9108" d="M573.419 203.882C573.941 203.843 574.464 203.816 574.988 203.8C596.077 203.091 616.779 204.227 637.796 205.934C719 212.528 806.797 233.907 867.168 292.026C920.982 343.833 946.58 414.199 948.06 488.021C963.024 486.237 978.058 484.784 993.138 484.653C1051.82 484.145 1113.98 506.871 1155.95 548.43C1192.14 584.273 1212.68 633.499 1217.01 683.95C1219.62 714.35 1218.04 745.611 1218.11 776.139C1237.44 777.335 1256.01 786.536 1269.75 800.036C1284.83 814.863 1291.79 830.838 1292.02 851.911C1292.8 921.055 1291.93 990.312 1291.94 1059.47L1292.02 1120.23C1292.04 1133.23 1293.13 1147.15 1290.77 1159.94C1287.41 1178.23 1279.81 1194.76 1266.67 1208.05C1254.8 1220.05 1239.21 1228.92 1222.54 1232.03C1207.05 1234.93 1189.98 1233.51 1174.23 1233.49L1094.84 1233.44L800.857 1233.53C774.426 1233.53 752.717 1227.14 733.634 1207.85C707.956 1181.89 710.075 1152.83 710.193 1119.3C623.728 1138.44 547.464 1141.1 460.136 1126.73C404.169 1116.3 350.022 1097.85 303.288 1064.8C250.676 1027.59 219.265 974.321 208.532 911.15C204.775 889.036 202.579 841.862 207.073 819.944C208.417 813.389 210.781 806.959 214.787 801.542C220.034 794.448 227.043 790.749 235.733 789.709C243.242 788.809 251.248 789.516 258.81 789.558L300.965 789.538L363.232 789.471C377.346 789.465 391.756 788.815 405.766 790.671C414.029 791.766 422.787 794.032 429.407 799.326C447.368 813.691 441.383 845.323 443.745 865.602C445.942 884.469 455.559 900.889 470.568 912.502C503.605 938.061 552.826 943.983 593.303 938.949C615.637 936.172 640.534 930.697 654.99 911.752C666.584 896.558 669.932 875.385 667.16 856.816C664.741 840.613 658.303 827.291 645.507 816.851C629.297 803.625 605.867 795.907 586.533 788.239C555.161 775.819 523.399 764.406 491.296 754.018C434.814 735.55 376.381 719.975 327.818 684.257C277.028 647.272 243.1 591.545 233.564 529.443C222.681 457.859 237.593 384.42 281.039 325.835C319.449 274.042 378.289 243.464 438.588 224.572C456.13 219.075 474.028 214.05 492.212 211.232C508.937 208.721 525.751 206.853 542.619 205.632C552.467 205.012 562.531 205.575 572.289 204.065L573.419 203.882ZM1005.25 748.298C1020.21 748.298 1035.39 748.842 1050.32 748.067C1050.25 722.598 1052.97 684.898 1033.23 665.527C1023.64 656.116 1007.09 651.733 993.881 652.391C993.016 652.434 992.228 652.592 991.384 652.771C975.751 655.561 962.658 660.76 953.169 674.175C949.571 679.256 947.07 685.031 945.827 691.131C943.029 704.969 944.837 733.265 944.955 748.381L1005.25 748.298ZM756.855 578.549L776.891 587.312C786.669 570.554 797.399 556.057 809.816 541.114C768.654 539.045 707.568 549.643 676.784 515.313C663.667 500.685 662.706 483.856 657.819 465.868C649.092 433.745 616.595 424.079 586.77 422.205C583.749 422.015 580.715 422.079 577.691 422.169C561.214 424.326 533.485 426.551 522.483 440.305C516.858 447.337 515.049 457.999 516.281 466.806C517.648 476.581 523.338 482.377 530.996 487.87C561.852 510.002 638.375 533.937 677.583 547.986C704.356 557.579 730.492 567.933 756.855 578.549Z"/>
	<path fill="#FEFEFE" d="M977.058 520.314C982.007 519.77 987.312 519.948 992.299 519.93C1044.25 519.736 1094.95 537.717 1132.11 574.834C1166.32 609.006 1181.93 657.187 1184.88 704.62C1185.76 718.857 1185.31 733.366 1185.3 747.63L1185.19 808.649C1205.45 808.544 1226.93 808.581 1242.58 823.492C1253.41 833.82 1258.04 848.237 1258.25 862.865C1259.24 929.693 1258.29 996.68 1258.28 1063.52L1258.28 1124.28C1258.29 1135.03 1259.27 1147.05 1257.64 1157.66C1256.34 1166.06 1250.68 1174.89 1244.81 1180.84C1236.5 1189.27 1225.87 1194.57 1214.32 1196.92C1196.81 1200.47 1166.89 1198.63 1148.12 1198.62L1027.4 1198.63L865.017 1198.6L819.943 1198.63C809.442 1198.63 798.169 1199.26 787.809 1197.38C776.303 1195.21 765.714 1189.63 757.415 1181.37C752.193 1176.08 746.634 1168.04 745.306 1160.6C743.28 1149.24 744.215 1136.79 744.213 1125.25L744.203 1069.8L744.23 868.771C744.281 851.481 746.036 836.47 758.994 823.791C772.416 810.658 790.717 808.496 808.655 808.636L808.588 735.355C808.561 674.36 811.219 633.648 852.386 584.078C874.496 557.455 910.479 533.329 944.169 524.74C954.881 522.009 966.085 521.337 977.058 520.314ZM1005.25 748.298C1020.21 748.298 1035.39 748.842 1050.32 748.067C1050.25 722.598 1052.97 684.898 1033.23 665.527C1023.64 656.116 1007.09 651.733 993.881 652.391C993.016 652.434 992.228 652.592 991.384 652.771C975.751 655.561 962.658 660.76 953.169 674.175C949.571 679.256 947.07 685.031 945.827 691.131C943.029 704.969 944.837 733.265 944.955 748.381L1005.25 748.298Z"/>
	<path fill="#FE9108" d="M987.087 590.636C990.881 589.92 995.509 590.188 999.39 590.183C1028.74 590.143 1059.1 604.183 1079.6 624.89C1112.52 658.146 1112.42 704.144 1112.45 747.741L1112.43 808.632L1008.91 808.656L881.81 808.65L881.771 740.289C881.771 720.018 880.615 699.282 884.796 679.336C888.333 662.461 895.34 646.281 906.427 632.985C926.533 608.607 955.603 593.344 987.087 590.636ZM1005.25 748.298C1020.21 748.298 1035.39 748.842 1050.32 748.067C1050.25 722.598 1052.97 684.898 1033.23 665.527C1023.64 656.116 1007.09 651.733 993.881 652.391C993.016 652.434 992.228 652.592 991.384 652.771C975.751 655.561 962.658 660.76 953.169 674.175C949.571 679.256 947.07 685.031 945.827 691.131C943.029 704.969 944.837 733.265 944.955 748.381L1005.25 748.298Z"/>
	<path fill="#FEFEFE" d="M989.632 625.765C991.045 625.603 992.466 625.518 993.889 625.508C1015.6 625.247 1037.66 632.934 1053.17 648.377C1077.06 672.177 1077.88 706.142 1077.88 737.731L1077.94 775.468L1006.71 774.891C976.826 774.781 946.939 774.983 917.055 775.496L916.968 728.923C916.937 702.154 915.437 676.927 932.954 654.545C947.552 635.894 966.743 628.429 989.632 625.765ZM1005.25 748.298C1020.21 748.298 1035.39 748.842 1050.32 748.067C1050.25 722.598 1052.97 684.898 1033.23 665.527C1023.64 656.116 1007.09 651.733 993.881 652.391C993.016 652.434 992.228 652.592 991.384 652.771C975.751 655.561 962.658 660.76 953.169 674.175C949.571 679.256 947.07 685.031 945.827 691.131C943.029 704.969 944.837 733.265 944.955 748.381L1005.25 748.298Z"/>
	<path fill="#FE9108" d="M990.513 901.039C999.055 900.359 1008.03 900.203 1016.34 902.507C1030.52 906.439 1042.29 916.565 1049.36 929.378C1056.89 943.03 1057.87 959.392 1053.57 974.221C1048.87 990.459 1039.17 999.537 1024.68 1007.41C1029.24 1025.72 1033.03 1044.3 1037.12 1062.73C1039.77 1074.65 1043.98 1087.8 1044.39 1099.95C1044.55 1104.45 1042.79 1108.64 1039.54 1111.76C1031.92 1119.11 1017.22 1117.05 1007.45 1116.91C995.317 1116.96 977.889 1118.62 966.275 1116.17C961.532 1115.17 957.681 1113.02 955.075 1108.82C953.417 1106.15 952.838 1103.5 953.003 1100.37C953.587 1089.33 957.468 1077.6 960.016 1066.82L974.245 1006.71C971.637 1005.42 968.957 1004.15 966.491 1002.61C954.73 995.194 946.387 983.422 943.289 969.87C939.951 955.517 942.326 939.33 950.304 926.851C959.862 911.9 973.625 904.763 990.513 901.039Z"/>
	<path fill="#FEFEFE" d="M573.362 242.763L575.229 242.749C592.26 242.638 609.462 242.438 626.464 243.442C639.268 244.198 652.149 246.181 664.87 247.832C731.171 256.436 795.776 275.344 844.382 323.647C884.996 364.007 908.929 425.046 908.959 481.832C893.835 481.991 878.566 480.885 863.435 480.574C817.379 479.22 771.304 478.663 725.229 478.905C722.228 468.153 721.379 457.036 717.78 446.368C707.726 415.69 685.732 390.359 656.769 376.1C618.278 357.436 563.862 355.037 523.667 369.361C497.94 378.53 472.939 396.552 461.173 421.801C451.147 443.317 450.001 473.211 458.364 495.442C465.673 514.873 481.728 530.432 498.806 541.613C531.396 562.949 582.432 579.706 619.821 593.698L706.079 625.846C719.516 630.868 733.276 635.408 746.486 640.971C758.025 645.83 768.754 652.385 780.152 657.574C774.791 695.875 776.797 735.636 777.015 774.251C761.23 778.397 746.435 785.851 734.824 797.479C722.679 809.642 715.955 824.707 712.688 841.438C709.933 855.55 710.449 869.701 710.466 884L710.492 926.049L710.488 1081.96C623.234 1108.55 537.42 1106.14 448.735 1088.63C385.741 1074.55 317.943 1049.43 279.071 994.592C250.889 954.836 239.097 905.53 238.713 857.375C238.621 845.939 238.649 834.988 240.543 823.665C255.44 823.018 270.433 823.335 285.344 823.338C326.474 823.345 367.495 824.542 408.62 824.771C408.588 828.047 408.598 831.324 408.65 834.601C409.297 870.896 415.896 910.168 443.271 936.343C478.656 970.178 530.661 975.256 577.27 974.345C612.992 973.647 651.606 963.973 677.026 937.27C694.968 918.421 703.91 888.5 703.101 862.795C702.334 838.45 691.97 813.481 674.217 796.603C652.662 776.109 623.858 765.776 596.689 755.081C553.112 737.927 508.604 723.76 464.23 708.845C442.772 701.632 421.134 695.528 400.36 686.397C372.499 674.396 346.981 657.561 324.987 636.669C286.639 600.875 267.93 547.59 266.334 495.915C264.533 437.574 282.037 376.98 322.616 334.027C384.599 268.42 486.231 245.105 573.362 242.763Z"/>
	<path fill="#FEFEFE" d="M570.691 395.073C575.728 394.453 580.936 394.666 585.996 394.908C628.715 396.95 672.517 412.493 684.46 458.014C688.419 473.101 688.718 490.877 700.106 502.875C704.471 507.474 709.534 509.832 715.684 511.042C730.277 513.912 745.567 512.272 760.363 512.834C799.498 514.469 838.658 515.442 877.826 515.754C868.211 523.572 858.116 530.871 848.803 539.049C823.693 561.098 802.428 589.423 790.85 620.932C790.285 622.348 790.52 622.647 789.082 623.335C773.279 613.467 754.145 606.797 736.886 599.948C697.764 584.422 657.958 570.946 618.48 556.387C584.215 543.75 540.315 529.788 511.601 507.477C498.917 497.622 490.127 486.248 488.169 469.97C486.368 454.997 489.295 438.195 498.874 426.203C516.043 404.711 544.672 397.842 570.691 395.073ZM756.855 578.549L776.891 587.312C786.669 570.554 797.399 556.057 809.816 541.114C768.654 539.045 707.568 549.643 676.784 515.313C663.667 500.685 662.706 483.856 657.819 465.868C649.092 433.745 616.595 424.079 586.77 422.205C583.749 422.015 580.715 422.079 577.691 422.169C561.214 424.326 533.485 426.551 522.483 440.305C516.858 447.337 515.049 457.999 516.281 466.806C517.648 476.581 523.338 482.377 530.996 487.87C561.852 510.002 638.375 533.937 677.583 547.986C704.356 557.579 730.492 567.933 756.855 578.549Z"/>
</svg>
